<svg width="294" height="168" viewBox="0 0 294 168" fill="none" xmlns="http://www.w3.org/2000/svg">
<path d="M19.7143 4.28571C20.1877 4.28571 20.5714 4.66946 20.5714 5.14285V18.8571C20.5714 19.3305 20.1877 19.7143 19.7143 19.7143H4.28572C3.81233 19.7143 3.42857 19.3305 3.42857 18.8571V5.14285C3.42857 4.66946 3.81233 4.28571 4.28572 4.28571H19.7143ZM11.1429 12.8571H5.14286V18H11.1429V12.8571ZM18.8571 12.8571H12.8571V18H18.8571V12.8571ZM11.1429 5.99999H5.14286V11.1428H11.1429V5.99999ZM18.8571 5.99999H12.8571V11.1428H18.8571V5.99999Z" fill="black"/>
<g clip-path="url(#clip0_749_466)">
<path fill-rule="evenodd" clip-rule="evenodd" d="M33.9489 3.42859H42.5744L39.1948 9.73747H41.9323L32.547 21.1168L31.0542 20.3633L32.5508 14.3861H29.5941L33.9489 3.42859ZM35.1123 5.14287L32.1201 12.6718H34.7472L33.6388 17.0988L38.2963 11.4518H36.3317L39.7113 5.14287H35.1123Z" fill="black"/>
<path fill-rule="evenodd" clip-rule="evenodd" d="M30.667 6.667C27.6544 9.67962 27.6544 14.564 30.667 17.5766L29.4548 18.7888C25.7727 15.1067 25.7727 9.13691 29.4548 5.45482L30.667 6.667ZM41.5766 17.5766C44.5893 14.564 44.5893 9.67962 41.5766 6.667L42.7888 5.45482C46.4709 9.13691 46.4709 15.1067 42.7888 18.7888L41.5766 17.5766Z" fill="black"/>
</g>
<g clip-path="url(#clip1_749_466)">
<path d="M66 18H54V18.8571C54 19.3305 53.6162 19.7143 53.1429 19.7143H52.2857C51.8123 19.7143 51.4286 19.3305 51.4286 18.8571V10.2857L53.5543 5.32456C53.8247 4.69381 54.4452 4.2851 55.1314 4.28571H64.8686C65.554 4.28571 66.1737 4.69424 66.4439 5.32439L68.5714 10.2857V18.8571C68.5714 19.3305 68.1877 19.7143 67.7143 19.7143H66.8571C66.3837 19.7143 66 19.3305 66 18.8571V18ZM66.8571 12H53.1429V16.2857H66.8571V12ZM53.2937 10.2857H66.7063L64.8694 5.99999H55.1314L53.2946 10.2857H53.2937ZM55.2857 15.4286C54.5756 15.4286 54 14.8529 54 14.1428C54 13.4328 54.5756 12.8571 55.2857 12.8571C55.9958 12.8571 56.5714 13.4328 56.5714 14.1428C56.5714 14.8529 55.9958 15.4286 55.2857 15.4286ZM64.7143 15.4286C64.0042 15.4286 63.4286 14.8529 63.4286 14.1428C63.4286 13.4328 64.0042 12.8571 64.7143 12.8571C65.4243 12.8571 66 13.4328 66 14.1428C66 14.8529 65.4243 15.4286 64.7143 15.4286Z" fill="black"/>
</g>
<g clip-path="url(#clip2_749_466)">
<path fill-rule="evenodd" clip-rule="evenodd" d="M76.2857 12.6316C76.2849 12.6174 76.284 12.6004 76.2833 12.5808C76.2814 12.5299 76.2801 12.4611 76.2817 12.377C76.2848 12.209 76.2994 11.9775 76.3435 11.7032C76.4313 11.1565 76.6394 10.4235 77.1231 9.68782C78.1248 8.16419 80.1491 6.85712 84 6.85712C87.8509 6.85712 89.8752 8.16419 90.8769 9.68782C91.3606 10.4235 91.5687 11.1565 91.6566 11.7033C91.7006 11.9775 91.7152 12.209 91.7183 12.377C91.7199 12.4611 91.7186 12.5299 91.7167 12.5808C91.716 12.6004 91.7151 12.6174 91.7143 12.6317V20.5714H76.2857V12.6316ZM77.9972 12.5338C77.997 12.531 77.9967 12.5249 77.9964 12.5157C77.9956 12.495 77.9947 12.4587 77.9957 12.4092C77.9975 12.3098 78.0064 12.1593 78.036 11.9753C78.0955 11.6054 78.2356 11.1161 78.5555 10.6296C79.1609 9.70878 80.5652 8.5714 84 8.5714C87.4348 8.5714 88.8391 9.70878 89.4445 10.6296C89.7644 11.1161 89.9045 11.6054 89.964 11.9753C89.9936 12.1593 90.0025 12.3098 90.0043 12.4092C90.0053 12.4587 90.0044 12.495 90.0037 12.5157C90.0033 12.5249 90.003 12.531 90.0028 12.5338L90 12.5657V18.8571H78V12.5657L77.9972 12.5338Z" fill="black"/>
<path d="M84.8571 14.5714L81.4286 12L78 13.2857V16.7143L81.8571 14.1429L84.8571 16.7143L86.5714 14.5714L89.1429 15L86.5714 12.4286L84.8571 14.5714Z" fill="black"/>
<path fill-rule="evenodd" clip-rule="evenodd" d="M81.3137 2.14286L82.8137 4.74093L81.3291 5.59808L79.8291 3L81.3137 2.14286Z" fill="black"/>
<path fill-rule="evenodd" clip-rule="evenodd" d="M88.1709 3.00003L86.6709 5.5981L85.1863 4.74096L86.6863 2.14288L88.1709 3.00003Z" fill="black"/>
<path fill-rule="evenodd" clip-rule="evenodd" d="M76.0347 4.53678L78.156 6.6581L76.9438 7.87028L74.8225 5.74896L76.0347 4.53678Z" fill="black"/>
<path fill-rule="evenodd" clip-rule="evenodd" d="M91.9653 4.53678L89.844 6.6581L91.0562 7.87028L93.1775 5.74896L91.9653 4.53678Z" fill="black"/>
</g>
<path d="M102 11.5714C102 11.8397 102.395 12.3069 103.311 12.7654C104.498 13.3586 106.18 13.7143 108 13.7143C109.82 13.7143 111.502 13.3586 112.689 12.7654C113.605 12.3069 114 11.8397 114 11.5714V9.71059C112.586 10.5849 110.423 11.1429 108 11.1429C105.577 11.1429 103.414 10.584 102 9.71059V11.5714ZM114 13.9963C112.586 14.8706 110.423 15.4286 108 15.4286C105.577 15.4286 103.414 14.8697 102 13.9963V15.8572C102 16.1254 102.395 16.5926 103.311 17.0512C104.498 17.6443 106.18 18 108 18C109.82 18 111.502 17.6443 112.689 17.0512C113.605 16.5926 114 16.1254 114 15.8572V13.9963ZM100.286 15.8572V7.28573C100.286 5.15573 103.74 3.42859 108 3.42859C112.26 3.42859 115.714 5.15573 115.714 7.28573V15.8572C115.714 17.9872 112.26 19.7143 108 19.7143C103.74 19.7143 100.286 17.9872 100.286 15.8572ZM108 9.42859C109.82 9.42859 111.502 9.07288 112.689 8.47973C113.605 8.02116 114 7.55402 114 7.28573C114 7.01745 113.605 6.5503 112.689 6.09173C111.502 5.49859 109.82 5.14287 108 5.14287C106.18 5.14287 104.498 5.49859 103.311 6.09173C102.395 6.5503 102 7.01745 102 7.28573C102 7.55402 102.395 8.02116 103.311 8.47973C104.498 9.07288 106.18 9.42859 108 9.42859Z" fill="black"/>
<path d="M132 20.5714C127.266 20.5714 123.429 16.734 123.429 12C123.429 7.26602 127.266 3.42859 132 3.42859C136.734 3.42859 140.571 7.26602 140.571 12C140.571 16.734 136.734 20.5714 132 20.5714ZM132 18.8572C135.787 18.8572 138.857 15.7871 138.857 12C138.857 8.21292 135.787 5.14287 132 5.14287C128.213 5.14287 125.143 8.21292 125.143 12C125.143 15.7871 128.213 18.8572 132 18.8572ZM132.857 12H136.286V13.7143H131.143V7.7143H132.857V12Z" fill="black"/>
<path d="M160.286 5.14287H163.714C164.188 5.14287 164.571 5.52663 164.571 6.00002V19.7143C164.571 20.1877 164.188 20.5714 163.714 20.5714H148.286C147.812 20.5714 147.429 20.1877 147.429 19.7143V6.00002C147.429 5.52663 147.812 5.14287 148.286 5.14287H151.714V3.42859H153.429V5.14287H158.571V3.42859H160.286V5.14287ZM162.857 12H149.143V18.8572H162.857V12ZM158.571 6.85716H153.429V8.57145H151.714V6.85716H149.143V10.2857H162.857V6.85716H160.286V8.57145H158.571V6.85716ZM150.857 14.5714H152.571V16.2857H150.857V14.5714ZM153.429 14.5714H158.571V16.2857H153.429V14.5714ZM159.429 14.5714H161.143V16.2857H159.429V14.5714Z" fill="black"/>
<path d="M184.077 5.05714L182.363 6.77142H174V18.7714H186V10.4083L187.714 8.69399V19.6286C187.714 20.102 187.331 20.4857 186.857 20.4857H173.143C172.669 20.4857 172.286 20.102 172.286 19.6286V5.91428C172.286 5.4409 172.669 5.05714 173.143 5.05714H184.077ZM187.273 4.28571L188.486 5.49942L180.607 13.3783L179.397 13.3808L179.395 12.1663L187.273 4.28571Z" fill="black"/>
<path d="M203.351 13.3594L204.918 11.7917L206.131 13.0045L202.494 16.6405L198.857 13.0045L200.07 11.7917L201.637 13.3594V11.1428C201.637 8.7759 203.556 6.85712 205.923 6.85712H209.351V8.5714H205.923C204.502 8.5714 203.351 9.72267 203.351 11.1428V13.3594Z" fill="black"/>
<path d="M222 8.57145V18.8572H234V8.57145H222ZM222 6.85716H234V5.14287H222V6.85716ZM234.857 20.5714H221.143C220.669 20.5714 220.286 20.1877 220.286 19.7143V4.28573C220.286 3.81234 220.669 3.42859 221.143 3.42859H234.857C235.331 3.42859 235.714 3.81234 235.714 4.28573V19.7143C235.714 20.1877 235.331 20.5714 234.857 20.5714ZM223.714 11.1429H227.143V12.8572H223.714V11.1429ZM223.714 15.4286H232.286V17.1429H223.714V15.4286ZM228.857 11.1429H232.286V12.8572H228.857V11.1429Z" fill="black"/>
<path d="M247.714 6.85716V4.28573C247.714 3.81234 248.098 3.42859 248.571 3.42859H258.857C259.331 3.42859 259.714 3.81234 259.714 4.28573V16.2857C259.714 16.7591 259.331 17.1429 258.857 17.1429H256.286V19.7143C256.286 20.1874 255.9 20.5714 255.423 20.5714H245.149C244.921 20.5728 244.701 20.4832 244.539 20.3223C244.377 20.1614 244.286 19.9426 244.286 19.7143L244.288 7.7143C244.288 7.24116 244.674 6.85716 245.151 6.85716H247.714ZM246.003 8.57145L246 18.8572H254.571V8.57145H246.003ZM249.429 6.85716H256.286V15.4286H258V5.14287H249.429V6.85716Z" fill="black"/>
<path d="M270.654 15.4286H282.857V5.14287H269.143V16.6157L270.654 15.4286ZM271.247 17.1429L267.429 20.1429V4.28573C267.429 3.81234 267.812 3.42859 268.286 3.42859H283.714C284.188 3.42859 284.571 3.81234 284.571 4.28573V16.2857C284.571 16.7591 284.188 17.1429 283.714 17.1429H271.247ZM275.143 12.8572H276.857V14.5714H275.143V12.8572ZM273.057 8.41116C273.367 6.861 274.826 5.81694 276.394 6.02421C277.961 6.23147 279.098 7.61897 278.995 9.19637C278.891 10.7738 277.581 12.0001 276 12H275.143V10.2857H276C276.677 10.2857 277.238 9.76034 277.283 9.08453C277.327 8.40864 276.84 7.8142 276.169 7.7254C275.497 7.6366 274.872 8.08389 274.739 8.74802L273.057 8.41116Z" fill="black"/>
<path d="M19.2857 27.4286C19.7591 27.4286 20.1429 27.8123 20.1429 28.2857V32.5714C20.1429 33.0448 19.7591 33.4286 19.2857 33.4286H15V44.5714C15 45.0448 14.6163 45.4286 14.1429 45.4286H10.7143C10.2409 45.4286 9.85715 45.0448 9.85715 44.5714V33.4286H5.14286C4.66948 33.4286 4.28572 33.0448 4.28572 32.5714V30.5297C4.28589 30.2052 4.46936 29.9085 4.7597 29.7634L9.42858 27.4286H19.2857ZM15 29.1429H9.83314L6.00001 31.0594V31.7143H11.5714V43.7143H13.2857V31.7143H15V29.1429ZM18.4286 29.1429H16.7143V31.7143H18.4286V29.1429Z" fill="black"/>
<path d="M28.2857 28.2857H43.7143C44.1877 28.2857 44.5714 28.6695 44.5714 29.1428V42.8571C44.5714 43.3305 44.1877 43.7143 43.7143 43.7143H28.2857C27.8123 43.7143 27.4286 43.3305 27.4286 42.8571V29.1428C27.4286 28.6695 27.8123 28.2857 28.2857 28.2857ZM29.1429 30V42H42.8571V30H29.1429ZM31.7143 36.8571H33.4286V40.2857H31.7143V36.8571ZM35.1429 31.7143H36.8571V40.2857H35.1429V31.7143ZM38.5714 34.2857H40.2857V40.2857H38.5714V34.2857Z" fill="black"/>
<path d="M66.8571 28.2857C67.3303 28.2857 67.7143 28.6697 67.7143 29.1428V42.8571C67.7143 43.3303 67.3303 43.7143 66.8571 43.7143H53.1429C52.6697 43.7143 52.2857 43.3303 52.2857 42.8571V29.1428C52.2857 28.6697 52.6697 28.2857 53.1429 28.2857H66.8571ZM59.3049 36.9926L54 37.9286V42H60.1869L59.304 36.9926H59.3049ZM66 30H59.8123L61.9277 42H66V30ZM58.0714 30H54V36.1869L59.0074 35.304L58.0714 30Z" fill="black"/>
<path d="M83.1429 30.8571V41.1429C83.1429 41.1991 83.1374 41.2549 83.1264 41.3101C83.1154 41.3653 83.0991 41.4189 83.0776 41.4709C83.0561 41.5229 83.0297 41.5723 82.9984 41.6191C82.9671 41.6659 82.9316 41.7092 82.8918 41.7489C82.852 41.7887 82.8087 41.8243 82.7619 41.8556C82.7151 41.8868 82.6657 41.9132 82.6137 41.9348C82.5617 41.9563 82.5081 41.9726 82.4529 41.9835C82.3977 41.9945 82.342 42 82.2857 42C82.2152 42 82.1457 41.9914 82.0772 41.9743C82.0088 41.9571 81.9435 41.9319 81.8813 41.8986C81.8191 41.8653 81.7618 41.8249 81.7096 41.7775C81.6574 41.7301 81.6117 41.677 81.5725 41.6183L74.7154 31.3326L75.4286 30.8571H76.2857V41.1429C76.2857 41.1991 76.2802 41.2549 76.2692 41.3101C76.2583 41.3653 76.242 41.4189 76.2205 41.4709C76.1989 41.5229 76.1725 41.5723 76.1413 41.6191C76.11 41.6659 76.0745 41.7092 76.0347 41.7489C75.9949 41.7887 75.9516 41.8243 75.9048 41.8556C75.858 41.8868 75.8086 41.9132 75.7566 41.9348C75.7046 41.9563 75.651 41.9726 75.5958 41.9835C75.5406 41.9945 75.4848 42 75.4286 42C75.3723 42 75.3166 41.9945 75.2614 41.9835C75.2062 41.9726 75.1525 41.9563 75.1005 41.9348C75.0486 41.9132 74.9992 41.8868 74.9524 41.8556C74.9056 41.8243 74.8623 41.7887 74.8225 41.7489C74.7827 41.7092 74.7472 41.6659 74.7159 41.6191C74.6846 41.5723 74.6582 41.5229 74.6367 41.4709C74.6151 41.4189 74.5989 41.3653 74.5879 41.3101C74.5769 41.2549 74.5714 41.1991 74.5714 41.1429V30.8571C74.5714 30.7866 74.58 30.7171 74.5972 30.6487C74.6143 30.5802 74.6396 30.5149 74.6729 30.4527C74.7061 30.3905 74.7465 30.3333 74.7939 30.281C74.8413 30.2288 74.8944 30.1831 74.9531 30.144C74.9999 30.1127 75.0494 30.0864 75.1014 30.0649C75.1534 30.0434 75.207 30.0272 75.2622 30.0163C75.3174 30.0054 75.3732 29.9999 75.4295 30C75.4858 30.0001 75.5415 30.0056 75.5967 30.0166C75.6519 30.0277 75.7054 30.044 75.7574 30.0656C75.8094 30.0872 75.8588 30.1136 75.9055 30.145C75.9523 30.1763 75.9955 30.2119 76.0353 30.2517C76.075 30.2915 76.1105 30.3349 76.1418 30.3817L82.9989 40.6674L82.2857 41.1429H81.4286V30.8571C81.4286 30.8009 81.4341 30.7451 81.445 30.6899C81.456 30.6347 81.4723 30.5811 81.4938 30.5291C81.5154 30.4771 81.5418 30.4277 81.573 30.3809C81.6043 30.3341 81.6398 30.2908 81.6796 30.2511C81.7194 30.2113 81.7627 30.1757 81.8095 30.1445C81.8563 30.1132 81.9057 30.0868 81.9577 30.0653C82.0097 30.0437 82.0633 30.0274 82.1185 30.0165C82.1737 30.0055 82.2294 30 82.2857 30C82.342 30 82.3977 30.0055 82.4529 30.0165C82.5081 30.0274 82.5617 30.0437 82.6137 30.0653C82.6657 30.0868 82.7151 30.1132 82.7619 30.1445C82.8087 30.1757 82.852 30.2113 82.8918 30.2511C82.9316 30.2908 82.9671 30.3341 82.9984 30.3809C83.0297 30.4277 83.0561 30.4771 83.0776 30.5291C83.0991 30.5811 83.1154 30.6347 83.1264 30.6899C83.1374 30.7451 83.1429 30.8009 83.1429 30.8571Z" fill="black"/>
<path fill-rule="evenodd" clip-rule="evenodd" d="M89.1429 35.1429C87.7227 35.1429 86.5714 36.2941 86.5714 37.7143C86.5714 39.1345 87.7227 40.2857 89.1429 40.2857C90.563 40.2857 91.7143 39.1345 91.7143 37.7143C91.7143 36.2941 90.563 35.1429 89.1429 35.1429ZM84.8571 37.7143C84.8571 35.3474 86.7759 33.4286 89.1429 33.4286C91.5098 33.4286 93.4286 35.3474 93.4286 37.7143C93.4286 40.0812 91.5098 42 89.1429 42C86.7759 42 84.8571 40.0812 84.8571 37.7143Z" fill="black"/>
<path d="M91.6561 33.4286L91.7725 33.4285C91.6561 33.4285 91.5408 33.4176 91.4267 33.3956C91.3126 33.3737 91.2017 33.3411 91.0942 33.298C90.9866 33.255 90.8845 33.2022 90.7877 33.1396C90.691 33.0771 90.6014 33.006 90.5191 32.9264C90.4369 32.8469 90.3634 32.7603 90.2987 32.6667C90.2341 32.5731 90.1795 32.4743 90.1349 32.3703C90.0904 32.2663 90.0568 32.1591 90.0341 32.0487C90.0113 31.9383 90 31.8268 90 31.7143C90 31.6017 90.0113 31.4902 90.0341 31.3798C90.0568 31.2694 90.0904 31.1622 90.1349 31.0582C90.1795 30.9542 90.2341 30.8555 90.2987 30.7619C90.3634 30.6683 90.4369 30.5817 90.5191 30.5021C90.6014 30.4225 90.691 30.3514 90.7877 30.2889C90.8845 30.2264 90.9866 30.1736 91.0942 30.1305C91.2017 30.0874 91.3126 30.0549 91.4267 30.0329C91.5408 30.011 91.6561 30 91.7725 30L91.6561 30C91.7725 30 91.8877 30.011 92.0019 30.033C92.116 30.0549 92.2269 30.0875 92.3344 30.1305C92.4419 30.1736 92.544 30.2264 92.6408 30.2889C92.7376 30.3515 92.8271 30.4225 92.9094 30.5021C92.9917 30.5817 93.0652 30.6683 93.1299 30.7619C93.1945 30.8555 93.2491 30.9543 93.2937 31.0583C93.3382 31.1623 93.3718 31.2695 93.3945 31.3799C93.4172 31.4903 93.4286 31.6017 93.4286 31.7143C93.4286 31.8269 93.4172 31.9383 93.3945 32.0487C93.3718 32.1591 93.3382 32.2663 93.2937 32.3703C93.2491 32.4743 93.1945 32.5731 93.1299 32.6667C93.0652 32.7603 92.9917 32.8469 92.9094 32.9265C92.8271 33.0061 92.7376 33.0771 92.6408 33.1397C92.544 33.2022 92.4419 33.255 92.3344 33.2981C92.2269 33.3411 92.116 33.3737 92.0019 33.3956C91.8877 33.4176 91.7725 33.4286 91.6561 33.4286Z" fill="black"/>
<path d="M102 38.5714V43.7143H100.286V27.4286H108.327C108.652 27.4288 108.949 27.6123 109.094 27.9026L109.714 29.1429H114.857C115.331 29.1429 115.714 29.5266 115.714 30V39.4286C115.714 39.902 115.331 40.2857 114.857 40.2857H109.387C109.062 40.2856 108.766 40.102 108.621 39.8117L108 38.5714H102ZM102 29.1429V36.8572H109.059L109.917 38.5714H114V30.8572H108.655L107.798 29.1429H102Z" fill="black"/>
<path d="M128.571 29.1428H139.714V30.8571H128.571V29.1428ZM126 28.2857V30.8571H126.857V31.7143H124.286V30.8571H125.143V29.1428H124.286V28.2857H126ZM124.286 37.7143V35.5714H126V35.1428H124.286V34.2857H126.857V36.4286H125.143V36.8571H126.857V37.7143H124.286ZM126 42.4286H124.286V41.5714H126V41.1428H124.286V40.2857H126.857V43.7143H124.286V42.8571H126V42.4286ZM128.571 35.1428H139.714V36.8571H128.571V35.1428ZM128.571 41.1428H139.714V42.8571H128.571V41.1428Z" fill="black"/>
<path d="M151.28 42H160.72L160.149 39.4286H151.851L151.28 42ZM162.477 42H163.714V43.7143H148.286V42H149.523L152.422 28.9568C152.509 28.5648 152.857 28.2858 153.259 28.2857H158.741C159.143 28.2857 159.49 28.5646 159.578 28.9567L162.477 42ZM152.232 37.7143H159.768L159.005 34.2857H152.995L152.233 37.7143H152.232ZM153.375 32.5714H158.625L158.054 30H153.946L153.375 32.5714Z" fill="black"/>
<path d="M173.143 27.4286H186.857C187.331 27.4286 187.714 27.8123 187.714 28.2857V43.7143C187.714 44.1877 187.331 44.5714 186.857 44.5714H173.143C172.669 44.5714 172.286 44.1877 172.286 43.7143V28.2857C172.286 27.8123 172.669 27.4286 173.143 27.4286ZM174 29.1429V42.8572H186V29.1429H174ZM175.714 30.8572H184.286V32.5714H175.714V30.8572ZM175.714 36H177.429V37.7143H175.714V36ZM175.714 39.4286H177.429V41.1429H175.714V39.4286ZM179.143 36H180.857V37.7143H179.143V36ZM179.143 39.4286H180.857V41.1429H179.143V39.4286ZM182.571 36H184.286V41.1429H182.571V36Z" fill="black"/>
<path d="M199.714 30.8572V28.2857C199.714 27.8123 200.098 27.4286 200.571 27.4286H210.857C211.331 27.4286 211.714 27.8123 211.714 28.2857V40.2857C211.714 40.7591 211.331 41.1429 210.857 41.1429H208.286V43.7143C208.286 44.1874 207.9 44.5714 207.423 44.5714H197.149C196.921 44.5728 196.701 44.4832 196.539 44.3223C196.377 44.1614 196.286 43.9426 196.286 43.7143L196.288 31.7143C196.288 31.2412 196.674 30.8572 197.151 30.8572H199.714ZM198.003 32.5714L198 42.8572H206.571V32.5714H198.003ZM201.429 30.8572H208.286V39.4286H210V29.1429H201.429V30.8572Z" fill="black"/>
<path d="M205.714 36.8571H198.857V38.5714H205.714V36.8571Z" fill="black"/>
<path fill-rule="evenodd" clip-rule="evenodd" d="M223.714 30.8572V28.2857C223.714 27.8123 224.098 27.4286 224.571 27.4286H234.857C235.331 27.4286 235.714 27.8123 235.714 28.2857V40.2857C235.714 40.7591 235.331 41.1429 234.857 41.1429H232.286V43.7143C232.286 44.1874 231.9 44.5714 231.423 44.5714H221.149C220.921 44.5728 220.701 44.4832 220.539 44.3223C220.377 44.1614 220.286 43.9426 220.286 43.7143L220.288 31.7143C220.288 31.2412 220.674 30.8572 221.151 30.8572H223.714ZM222.003 32.5714L222 42.8572H230.571V32.5714H222.003ZM225.429 30.8572H232.286V39.4286H234V29.1429H225.429V30.8572ZM225.429 36.8572H222.857V38.5714H225.429V41.1429H227.143V38.5714H229.714V36.8572H227.143V34.2857H225.429V36.8572Z" fill="black"/>
<path fill-rule="evenodd" clip-rule="evenodd" d="M243.429 36C243.429 40.734 247.266 44.5714 252 44.5714C256.734 44.5714 260.571 40.734 260.571 36C260.571 31.266 256.734 27.4286 252 27.4286C247.266 27.4286 243.429 31.266 243.429 36ZM258.857 36C258.857 39.7871 255.787 42.8572 252 42.8572C248.213 42.8572 245.143 39.7871 245.143 36C245.143 32.2129 248.213 29.1429 252 29.1429C255.787 29.1429 258.857 32.2129 258.857 36ZM248.571 35.1429H255.429V36.8572H248.571V35.1429Z" fill="black"/>
<path fill-rule="evenodd" clip-rule="evenodd" d="M267.429 36C267.429 40.734 271.266 44.5714 276 44.5714C280.734 44.5714 284.571 40.734 284.571 36C284.571 31.266 280.734 27.4286 276 27.4286C271.266 27.4286 267.429 31.266 267.429 36ZM282.857 36C282.857 39.7871 279.787 42.8572 276 42.8572C272.213 42.8572 269.143 39.7871 269.143 36C269.143 32.2129 272.213 29.1429 276 29.1429C279.787 29.1429 282.857 32.2129 282.857 36ZM276.857 39.4286V36.8572H279.429V35.1429H276.857V32.5714H275.143V35.1429H272.571V36.8572H275.143V39.4286H276.857Z" fill="black"/>
<path d="M18 57.4286H13.7143V53.1429H6.00001V59.8774L7.28572 61.0714L10.2857 57.8572L12.8571 62.1429L14.5714 60L17.1429 62.5714L14.5714 62.1429L12.8571 64.2857L10.2857 60.8572L7.71429 63.8572L6.00001 62.7857V66.8572H18V57.4286ZM19.7143 56.5714V67.7083C19.7176 68.1817 19.3366 68.5681 18.8632 68.5714H5.13686C4.66712 68.5714 4.28619 68.1909 4.28572 67.7212V52.2789C4.28572 51.8186 4.67058 51.4286 5.14458 51.4286H14.5689L19.7143 56.5714Z" fill="black"/>
<path d="M31.4948 66.2083C32.2046 66.2083 32.7806 66.7843 32.7806 67.494C32.7806 68.2037 32.2046 68.7797 31.4948 68.7797C30.7851 68.7797 30.2091 68.2037 30.2091 67.494C30.2091 66.7843 30.7851 66.2083 31.4948 66.2083ZM42.6377 66.2083C43.3474 66.2083 43.9234 66.7843 43.9234 67.494C43.9234 68.2037 43.3474 68.7797 42.6377 68.7797C41.928 68.7797 41.352 68.2037 41.352 67.494C41.352 66.7843 41.928 66.2083 42.6377 66.2083ZM28.6423 50.5714L31.9226 53.8526V63.6368H43.9234V65.3511H31.0663C30.5931 65.3511 30.2091 64.9671 30.2091 64.494V54.5623L27.4286 51.7843L28.6414 50.5714H28.6423Z" fill="black"/>
<path d="M40.9971 53.3511L39.4294 51.7843L40.6423 50.5714L44.2783 54.2083L40.6423 57.8451L39.4294 56.6323L40.9971 55.0654H38.7806C37.3604 55.0654 36.2091 56.2167 36.2091 57.6368V61.0654H34.4949V57.6368C34.4949 55.2699 36.4136 53.3511 38.7806 53.3511H40.9971Z" fill="black"/>
<path d="M66.8571 68.5714H53.1429C52.6695 68.5714 52.2857 68.1877 52.2857 67.7143V52.2857C52.2857 51.8123 52.6695 51.4286 53.1429 51.4286H66.8571C67.3305 51.4286 67.7143 51.8123 67.7143 52.2857V67.7143C67.7143 68.1877 67.3305 68.5714 66.8571 68.5714ZM66 66.8572V53.1429H54V66.8572H66ZM56.5714 57.4286H63.4286V59.1429H56.5714V57.4286ZM56.5714 60.8572H63.4286V62.5714H56.5714V60.8572Z" fill="black"/>
<path d="M79.7143 55.7143V52.2857C79.7143 51.8123 80.098 51.4286 80.5714 51.4286H91.7143C92.1877 51.4286 92.5714 51.8123 92.5714 52.2857V63.4286C92.5714 63.902 92.1877 64.2857 91.7143 64.2857H88.2857V67.7083C88.2857 68.1849 87.9008 68.5714 87.4226 68.5714H76.2917C76.0627 68.5717 75.8431 68.4808 75.6812 68.3189C75.5192 68.1569 75.4283 67.9373 75.4286 67.7083L75.4311 56.5774C75.4311 56.1009 75.816 55.7143 76.2943 55.7143H79.7143ZM81.4286 55.7143H87.4226C87.8991 55.7143 88.2857 56.0992 88.2857 56.5774V62.5714H90.8571V53.1429H81.4286V55.7143ZM77.1454 57.4286L77.1429 66.8572H86.5714V57.4286H77.1454Z" fill="black"/>
<path d="M102 52.2857V66H115.714V67.7143H100.286V52.2857H102ZM115.108 55.1083L116.32 56.3203L111.429 61.212L108.857 58.6414L105.177 62.3203L103.965 61.1083L108.857 56.2166L111.429 58.7871L115.108 55.1083Z" fill="black"/>
<path d="M127.714 55.7143V52.2857C127.714 51.8123 128.098 51.4286 128.571 51.4286H139.714C140.188 51.4286 140.571 51.8123 140.571 52.2857V63.4286C140.571 63.902 140.188 64.2857 139.714 64.2857H136.286V67.7083C136.286 68.1849 135.901 68.5714 135.423 68.5714H124.292C124.063 68.5717 123.843 68.4808 123.681 68.3189C123.519 68.1569 123.428 67.9373 123.429 67.7083L123.431 56.5774C123.431 56.1009 123.816 55.7143 124.294 55.7143H127.714ZM129.429 55.7143H135.423C135.899 55.7143 136.286 56.0992 136.286 56.5774V62.5714H138.857V53.1429H129.429V55.7143ZM134.571 57.4286H125.145L125.143 66.8572H134.571V57.4286ZM129.003 65.1429L125.972 62.112L127.184 60.9L129.003 62.7189L132.639 59.082L133.851 60.294L129.003 65.1429Z" fill="black"/>
<path d="M157.359 57.6368L155.792 56.07L157.005 54.8571L160.641 58.494L157.005 62.1308L155.792 60.918L157.359 59.3511H155.143C153.723 59.3511 152.571 60.5024 152.571 61.9225V65.3511H150.857V61.9225C150.857 59.5556 152.776 57.6368 155.143 57.6368H157.359Z" fill="black"/>
<path d="M180 50.5714L187.043 52.1366C187.435 52.224 187.714 52.5711 187.714 52.9731V61.5334C187.714 63.2528 186.855 64.8591 185.424 65.8123L180 69.4286L174.576 65.8123C173.145 64.8583 172.286 63.2528 172.286 61.5343V52.9731C172.286 52.5711 172.565 52.224 172.957 52.1366L180 50.5714ZM180 52.3277L174 53.6606V61.5334C174 62.6794 174.573 63.75 175.527 64.386L180 67.3688L184.473 64.386C185.427 63.75 186 62.6803 186 61.5343V53.6606L180 52.3277ZM183.816 56.7617L185.029 57.9737L179.574 63.4286L175.937 59.7917L177.149 58.5797L179.573 61.0037L183.816 56.7617Z" fill="black"/>
<path d="M202.788 55.0654L201.22 53.4986L202.433 52.2857L206.069 55.9226L202.433 59.5594L201.22 58.3466L202.788 56.7797H200.571C199.151 56.7797 198 57.931 198 59.3511V62.7797H196.286V59.3511C196.286 56.9842 198.204 55.0654 200.571 55.0654H202.788Z" fill="black"/>
<path d="M205.567 65.1429L207.135 66.7098L205.922 67.9226L202.286 64.2858L205.922 60.6489L207.135 61.8618L205.567 63.4286L207.783 63.4286C209.204 63.4286 210.355 62.2773 210.355 60.8572L210.355 57.4286L212.069 57.4286L212.069 60.8572C212.069 63.2241 210.15 65.1429 207.783 65.1429L205.567 65.1429Z" fill="black"/>
<path d="M234 68.2701H222C221.527 68.2701 221.143 67.8862 221.143 67.4129V59.6986H218.571L227.423 51.6518C227.75 51.3542 228.25 51.3542 228.577 51.6518L237.429 59.6986H234.857V67.4129C234.857 67.8862 234.473 68.2701 234 68.2701ZM222.857 66.5558H233.143V58.1189L228 53.444L222.857 58.1189V66.5558ZM225.429 58.8415H230.571V63.9844H225.429V58.8415ZM227.143 60.5558V62.2701H228.857V60.5558H227.143Z" fill="black"/>
<path fill-rule="evenodd" clip-rule="evenodd" d="M245.571 52.2857C244.861 52.2857 244.286 52.8613 244.286 53.5714V63.4587C244.286 63.8742 244.486 64.2641 244.825 64.5054L251.253 69.0916C251.7 69.4104 252.3 69.4104 252.747 69.0916L259.175 64.5054C259.514 64.2641 259.714 63.8742 259.714 63.4587V53.5714C259.714 52.8613 259.139 52.2857 258.429 52.2857H245.571ZM246 63.238V54H258V63.238L252 67.5185L246 63.238ZM251.79 62.1428L249.271 63.4671L249.752 60.6626L247.714 58.6757L250.531 58.266L251.79 55.7143L253.05 58.266L255.866 58.6757L253.828 60.6626L254.308 63.4671L251.79 62.1428Z" fill="black"/>
<path d="M269.853 67.7143L269.835 67.7314L269.817 67.7143H268.279C267.809 67.7138 267.429 67.3329 267.429 66.8631V53.1368C267.432 52.6685 267.81 52.2894 268.279 52.2857H283.721C284.191 52.2857 284.571 52.6671 284.571 53.1368V66.8631C284.568 67.3315 284.189 67.7105 283.721 67.7143H269.853ZM282.857 62.5714V54H269.143V66L277.714 57.4286L282.857 62.5714ZM282.857 64.9954L277.714 59.8526L271.567 66H282.857V64.9954ZM272.571 59.1428C271.625 59.1428 270.857 58.3753 270.857 57.4286C270.857 56.4818 271.625 55.7143 272.571 55.7143C273.518 55.7143 274.286 56.4818 274.286 57.4286C274.286 58.3753 273.518 59.1428 272.571 59.1428Z" fill="black"/>
<path d="M16.2857 75.4286V77.1429H18.8631C19.3329 77.1429 19.7143 77.5243 19.7143 77.994V91.7203C19.7143 92.19 19.3329 92.5714 18.8631 92.5714H5.13687C4.66716 92.5714 4.28572 92.19 4.28572 91.7203V77.994C4.28572 77.5243 4.66716 77.1429 5.13687 77.1429H7.71429V75.4286H16.2857ZM7.71429 78.8572H6.00001V90.8572H18V78.8572H16.2857V80.5714H7.71429V78.8572ZM9.42858 87.4286V89.1429H7.71429V87.4286H9.42858ZM9.42858 84.8572V86.5714H7.71429V84.8572H9.42858ZM9.42858 82.2857V84H7.71429V82.2857H9.42858ZM14.5714 77.1429H9.42858V78.8572H14.5714V77.1429Z" fill="black"/>
<path d="M33.4286 75.4286V77.1429H38.5714V75.4286H40.2857V77.1429H43.7143C44.1877 77.1429 44.5714 77.5266 44.5714 78V91.7143C44.5714 92.1877 44.1877 92.5714 43.7143 92.5714H28.2857C27.8123 92.5714 27.4286 92.1877 27.4286 91.7143V78C27.4286 77.5266 27.8123 77.1429 28.2857 77.1429H31.7143V75.4286H33.4286ZM42.8571 83.1429H29.1429V90.8572H42.8571V83.1429ZM38.6023 84.1166L39.8143 85.3286L35.5714 89.5714L32.5406 86.5406L33.7543 85.3286L35.5723 87.1474L38.6031 84.1166H38.6023ZM31.7143 78.8572H29.1429V81.4286H42.8571V78.8572H40.2857V79.7143H38.5714V78.8572H33.4286V79.7143H31.7143V78.8572Z" fill="black"/>
<path d="M51.4286 83.6897C51.4286 82.9483 51.5229 82.23 51.6994 81.5434C52.665 81.5942 53.5774 81.099 54.061 80.2618C54.5447 79.4246 54.5178 78.3868 53.9914 77.5757C55.0277 76.5562 56.3064 75.8173 57.7072 75.4286C58.1458 76.2911 59.0315 76.8343 59.9991 76.8343C60.9668 76.8343 61.8525 76.2911 62.2911 75.4286C63.6919 75.8173 64.9707 76.5562 66.0069 77.5757C65.4799 78.387 65.4528 79.4253 65.9368 80.2629C66.4207 81.1005 67.3337 81.5956 68.2997 81.5443C68.4763 82.23 68.5706 82.9483 68.5706 83.6897C68.5706 84.4312 68.4763 85.1494 68.2997 85.836C67.334 85.7849 66.4213 86.2799 65.9374 87.1173C65.4536 87.9545 65.4804 88.9925 66.0069 89.8037C64.9707 90.8232 63.6919 91.5622 62.2911 91.9509C61.8525 91.0884 60.9668 90.5452 59.9991 90.5452C59.0315 90.5452 58.1458 91.0884 57.7072 91.9509C56.3064 91.5622 55.0277 90.8232 53.9914 89.8037C54.5184 88.9925 54.5455 87.9542 54.0616 87.1166C53.5776 86.279 52.6646 85.7838 51.6986 85.8352C51.5229 85.1503 51.4286 84.432 51.4286 83.6897ZM55.5463 86.2612C56.0863 87.1963 56.2406 88.272 56.0297 89.2817C56.3794 89.5303 56.7514 89.7454 57.1414 89.9246C57.9272 89.2207 58.9451 88.8318 60 88.8326C61.08 88.8326 62.0897 89.2363 62.8586 89.9246C63.2486 89.7454 63.6206 89.5303 63.9703 89.2817C63.7538 88.2497 63.926 87.1741 64.4537 86.2612C64.9805 85.3478 65.826 84.661 66.828 84.3326C66.8676 83.9049 66.8676 83.4745 66.828 83.0469C65.8257 82.7186 64.9799 82.0319 64.4529 81.1183C63.9251 80.2054 63.7529 79.1298 63.9694 78.0977C63.6198 77.8491 63.2476 77.6339 62.8577 77.4549C62.0722 78.1585 61.0545 78.5474 60 78.5469C58.9451 78.5476 57.9272 78.1587 57.1414 77.4549C56.7515 77.6339 56.3793 77.8491 56.0297 78.0977C56.2462 79.1298 56.074 80.2054 55.5463 81.1183C55.0194 82.0317 54.174 82.7185 53.172 83.0469C53.1324 83.4745 53.1324 83.9049 53.172 84.3326C54.1743 84.6608 55.0201 85.3476 55.5471 86.2612H55.5463ZM60 86.2612C58.5798 86.2612 57.4286 85.1099 57.4286 83.6897C57.4286 82.2696 58.5798 81.1183 60 81.1183C61.4202 81.1183 62.5714 82.2696 62.5714 83.6897C62.5714 85.1099 61.4202 86.2612 60 86.2612ZM60 84.5469C60.4734 84.5469 60.8571 84.1631 60.8571 83.6897C60.8571 83.2163 60.4734 82.8326 60 82.8326C59.5266 82.8326 59.1429 83.2163 59.1429 83.6897C59.1429 84.1631 59.5266 84.5469 60 84.5469Z" fill="black"/>
<path d="M88.2857 77.1429H91.7143C92.1877 77.1429 92.5714 77.5266 92.5714 78V91.7143C92.5714 92.1877 92.1877 92.5714 91.7143 92.5714H76.2857C75.8123 92.5714 75.4286 92.1877 75.4286 91.7143V78C75.4286 77.5266 75.8123 77.1429 76.2857 77.1429H79.7143V75.4286H81.4286V77.1429H86.5714V75.4286H88.2857V77.1429ZM90.8571 82.2857V78.8572H88.2857V80.5714H86.5714V78.8572H81.4286V80.5714H79.7143V78.8572H77.1429V82.2857H90.8571ZM90.8571 84H77.1429V90.8572H90.8571V84ZM78.8571 85.7143H83.1429V89.1429H78.8571V85.7143Z" fill="black"/>
<path d="M101.143 75.4286H114.857C115.331 75.4286 115.714 75.8123 115.714 76.2857V91.7143C115.714 92.1877 115.331 92.5714 114.857 92.5714H101.143C100.669 92.5714 100.286 92.1877 100.286 91.7143V76.2857C100.286 75.8123 100.669 75.4286 101.143 75.4286ZM102 77.1429V90.8572H114V77.1429H102ZM103.714 82.7143H112.286V84.4286H103.714V82.7143Z" fill="black"/>
<path d="M125.143 75.4286H138.857C139.331 75.4286 139.714 75.8123 139.714 76.2857V91.7143C139.714 92.1877 139.331 92.5714 138.857 92.5714H125.143C124.669 92.5714 124.286 92.1877 124.286 91.7143V76.2857C124.286 75.8123 124.669 75.4286 125.143 75.4286ZM126 77.1429V90.8572H138V77.1429H126Z" fill="black"/>
<path d="M127.714 87.4286H136.286V89.1429H127.714L127.714 87.4286Z" fill="black"/>
<path d="M127.714 78.8571H136.286V80.5714H127.714L127.714 78.8571Z" fill="black"/>
<path d="M149.143 75.4286H162.857C163.331 75.4286 163.714 75.8123 163.714 76.2857V91.7143C163.714 92.1877 163.331 92.5714 162.857 92.5714H149.143C148.669 92.5714 148.286 92.1877 148.286 91.7143V76.2857C148.286 75.8123 148.669 75.4286 149.143 75.4286ZM150 77.1429V90.8572H162V77.1429H150Z" fill="black"/>
<rect x="151.714" y="87.4286" width="3.42857" height="1.71429" fill="black"/>
<rect x="156.857" y="87.4286" width="3.42857" height="1.71429" fill="black"/>
<path d="M151.714 78.8571H160.286V80.5714H151.714V78.8571Z" fill="black"/>
<path fill-rule="evenodd" clip-rule="evenodd" d="M173.143 75.4286H186.857C187.331 75.4286 187.714 75.8123 187.714 76.2857V91.7143C187.714 92.1877 187.331 92.5714 186.857 92.5714H173.143C172.669 92.5714 172.286 92.1877 172.286 91.7143V76.2857C172.286 75.8123 172.669 75.4286 173.143 75.4286ZM174 77.1429V90.8572H186V77.1429H174ZM175.714 87.4286H179.143V89.1429H175.714V87.4286ZM184.286 87.4286H180.857V89.1429H184.286V87.4286ZM175.714 78.8572H179.143V80.5714H175.714V78.8572ZM184.286 78.8572H180.857V80.5714H184.286V78.8572Z" fill="black"/>
<path d="M199.495 90.2083C200.205 90.2083 200.781 90.7843 200.781 91.494C200.781 92.2037 200.205 92.7797 199.495 92.7797C198.785 92.7797 198.209 92.2037 198.209 91.494C198.209 90.7843 198.785 90.2083 199.495 90.2083ZM210.638 90.2083C211.347 90.2083 211.923 90.7843 211.923 91.494C211.923 92.2037 211.347 92.7797 210.638 92.7797C209.928 92.7797 209.352 92.2037 209.352 91.494C209.352 90.7843 209.928 90.2083 210.638 90.2083ZM196.642 74.5714L199.923 77.8526V87.6368H211.923V89.3511H199.066C198.593 89.3511 198.209 88.9671 198.209 88.494V78.5623L195.429 75.7843L196.641 74.5714H196.642Z" fill="black"/>
<path d="M205.923 81.7842L207.49 80.2165L208.703 81.4293L205.066 85.0654L201.429 81.4293L202.642 80.2165L204.209 81.7842V79.5676C204.209 77.2007 206.128 75.2819 208.495 75.2819H211.923V76.9962H208.495C207.075 76.9962 205.923 78.1475 205.923 79.5676V81.7842Z" fill="black"/>
<path d="M234 92.5714H222C220.58 92.5714 219.429 91.4202 219.429 90V76.2857C219.429 75.8123 219.812 75.4286 220.286 75.4286H232.286C232.759 75.4286 233.143 75.8123 233.143 76.2857V86.5714H236.571V90C236.571 91.4202 235.42 92.5714 234 92.5714ZM233.143 88.2857V90C233.143 90.4734 233.527 90.8572 234 90.8572C234.473 90.8572 234.857 90.4734 234.857 90V88.2857H233.143ZM231.429 90.8572V77.1429H221.143V90C221.143 90.4734 221.527 90.8572 222 90.8572H231.429ZM222.857 79.7143H229.714V81.4286H222.857V79.7143ZM222.857 83.1429H229.714V84.8572H222.857V83.1429ZM222.857 86.5714H227.143V88.2857H222.857V86.5714Z" fill="black"/>
<path d="M256.815 79.6869L258.061 78.4414L259.273 79.6534L258.027 80.8989C260.582 84.0972 260.194 88.7346 257.143 91.4638C254.092 94.193 249.44 94.0635 246.545 91.1687C243.65 88.2741 243.521 83.6223 246.25 80.571C248.979 77.5198 253.617 77.1317 256.815 79.6869ZM252 91.7143C255.313 91.7143 258 89.028 258 85.7143C258 82.4006 255.313 79.7143 252 79.7143C248.686 79.7143 246 82.4006 246 85.7143C246 89.028 248.686 91.7143 252 91.7143ZM251.143 81.4286H252.857V86.5714H251.143V81.4286ZM248.571 75.4286H255.428V77.1429H248.571V75.4286Z" fill="black"/>
<path d="M271.806 81.2492C272.112 82.3678 273.128 83.1436 274.288 83.1435H277.716C279.8 83.1435 281.583 84.6431 281.939 86.6969C283.141 87.0886 283.881 88.2961 283.683 89.5449C283.485 90.7939 282.409 91.7138 281.145 91.715C279.91 91.7159 278.848 90.8387 278.617 89.6256C278.385 88.4125 279.049 87.206 280.198 86.7521C279.892 85.6335 278.876 84.8578 277.716 84.8578H274.288C273.36 84.8592 272.457 84.5583 271.716 84.0007V86.7178C272.897 87.1353 273.606 88.3431 273.394 89.5779C273.182 90.8127 272.112 91.7154 270.859 91.7154C269.606 91.7154 268.535 90.8127 268.324 89.5779C268.112 88.3431 268.821 87.1353 270.002 86.7178V81.2835C268.829 80.8695 268.12 79.6755 268.319 78.4477C268.517 77.2198 269.566 76.3098 270.809 76.2862C272.053 76.2625 273.135 77.1321 273.38 78.3515C273.625 79.5709 272.962 80.7909 271.806 81.2492ZM270.859 79.715C271.332 79.715 271.716 79.3312 271.716 78.8578C271.716 78.3844 271.332 78.0007 270.859 78.0007C270.386 78.0007 270.002 78.3844 270.002 78.8578C270.002 79.3312 270.386 79.715 270.859 79.715ZM270.859 90.0007C271.332 90.0007 271.716 89.6169 271.716 89.1435C271.716 88.6701 271.332 88.2864 270.859 88.2864C270.386 88.2864 270.002 88.6701 270.002 89.1435C270.002 89.6169 270.386 90.0007 270.859 90.0007ZM281.145 90.0007C281.618 90.0007 282.002 89.6169 282.002 89.1435C282.002 88.6701 281.618 88.2864 281.145 88.2864C280.671 88.2864 280.287 88.6701 280.287 89.1435C280.287 89.6169 280.671 90.0007 281.145 90.0007Z" fill="black"/>
<path d="M16.2857 99.4286V101.143H18.8632C19.3329 101.143 19.7143 101.524 19.7143 101.994V115.72C19.7143 116.19 19.3329 116.571 18.8632 116.571H5.13685C4.66713 116.571 4.28572 116.19 4.28572 115.72V101.994C4.28572 101.524 4.66713 101.143 5.13685 101.143H7.71429V99.4286H16.2857ZM7.71429 102.857H6.00001V114.857H18V102.857H16.2857V104.571H7.71429V102.857ZM9.42858 111.429V113.143H7.71429V111.429H9.42858ZM9.42858 108.857V110.571H7.71429V108.857H9.42858ZM9.42858 106.286V108H7.71429V106.286H9.42858ZM14.5714 101.143H9.42858V102.857H14.5714V101.143Z" fill="black"/>
<path fill-rule="evenodd" clip-rule="evenodd" d="M42.8571 111.429H30.654L29.1429 112.616V101.143H42.8571V111.429ZM27.4286 116.143L31.2471 113.143H43.7143C44.1877 113.143 44.5714 112.759 44.5714 112.286V100.286C44.5714 99.8123 44.1877 99.4286 43.7143 99.4286H28.2857C27.8123 99.4286 27.4286 99.8123 27.4286 100.286V116.143ZM33.4286 105.429H31.7143V107.143H33.4286V105.429ZM35.1429 105.429H36.8571V107.143H35.1429V105.429ZM40.2857 105.429H38.5714V107.143H40.2857V105.429Z" fill="black"/>
<path d="M63.4286 107.143H56.5714V108.857H63.4286V107.143Z" fill="black"/>
<path fill-rule="evenodd" clip-rule="evenodd" d="M84.8571 108.857V111.429H83.1429V108.857H80.5714V107.143H83.1429V104.571H84.8571V107.143H87.4286V108.857H84.8571Z" fill="black"/>
<path d="M108 116.571C103.266 116.571 99.4286 112.734 99.4286 108C99.4286 103.266 103.266 99.4286 108 99.4286C112.734 99.4286 116.571 103.266 116.571 108C116.571 112.734 112.734 116.571 108 116.571ZM108 114.857C111.787 114.857 114.857 111.787 114.857 108C114.857 104.213 111.787 101.143 108 101.143C104.213 101.143 101.143 104.213 101.143 108C101.143 111.787 104.213 114.857 108 114.857Z" fill="black"/>
<path d="M113.029 105.974L111.816 104.762L107.573 109.004L105.149 106.58L103.937 107.792L107.574 111.429L113.029 105.974Z" fill="black"/>
<path d="M136.286 99.4286V101.143H138.863C139.333 101.143 139.714 101.524 139.714 101.994V115.72C139.714 116.19 139.333 116.571 138.863 116.571H125.137C124.667 116.571 124.286 116.19 124.286 115.72V101.994C124.286 101.524 124.667 101.143 125.137 101.143H127.714V99.4286H136.286ZM127.714 102.857H126V114.857H138V102.857H136.286V104.571H127.714V102.857ZM134.571 101.143H129.429V102.857H134.571V101.143Z" fill="black"/>
<path d="M128.892 109.967L131.463 107.396L134.5 110.5L135.5 109.5L136 113.5L132 113L133.303 111.661L131.463 109.821L128.892 112.392L125 108.5V106L128.892 109.967Z" fill="black"/>
<path d="M160.286 99.4286V101.143H162.863C163.333 101.143 163.714 101.524 163.714 101.994V115.72C163.714 116.19 163.333 116.571 162.863 116.571H149.137C148.667 116.571 148.286 116.19 148.286 115.72V101.994C148.286 101.524 148.667 101.143 149.137 101.143H151.714V99.4286H160.286ZM151.714 102.857H150V114.857H162V102.857H160.286V104.571H151.714V102.857ZM158.571 101.143H153.429V102.857H158.571V101.143Z" fill="black"/>
<path d="M152.892 109.533L155.463 112.104L158.5 109L159.5 110L160 106L156 106.5L157.303 107.839L155.463 109.679L152.892 107.108L149 111V113.5L152.892 109.533Z" fill="black"/>
<path d="M180 111L175 106H185L180 111Z" fill="black"/>
<path d="M204 116.571C199.266 116.571 195.429 112.734 195.429 108C195.429 104.162 197.951 100.913 201.429 99.8212V101.642C198.39 102.876 196.649 106.088 197.276 109.308C197.902 112.527 200.72 114.853 204 114.857C206.794 114.857 209.31 113.162 210.358 110.572L212.179 110.571C211.087 114.049 207.838 116.571 204 116.571ZM212.529 108.857H203.143V99.4714C203.425 99.4432 203.711 99.4286 204 99.4286C208.734 99.4286 212.571 103.266 212.571 108C212.571 108.289 212.557 108.575 212.529 108.857ZM204.857 101.196V107.143H210.804C210.412 104.036 207.964 101.588 204.857 101.196Z" fill="black"/>
<path d="M224 107.862L225.5 106.5L228 109L230.5 106.5L232 107.862L228 111.5L224 107.862Z" fill="black"/>
<path d="M248 109.638L249.5 111L252 108.5L254.5 111L256 109.638L252 106L248 109.638Z" fill="black"/>
<path d="M276.857 109.93V111.722C275.283 111.165 273.536 111.407 272.173 112.372C270.81 113.336 270 114.902 270 116.571L268.286 116.571C268.285 114.449 269.266 112.447 270.943 111.148C272.62 109.849 274.803 109.4 276.857 109.93ZM275.143 108.857C272.301 108.857 270 106.556 270 103.714C270 100.873 272.301 98.5714 275.143 98.5714C277.984 98.5714 280.286 100.873 280.286 103.714C280.286 106.556 277.984 108.857 275.143 108.857ZM275.143 107.143C277.037 107.143 278.571 105.609 278.571 103.714C278.571 101.82 277.037 100.286 275.143 100.286C273.249 100.286 271.714 101.82 271.714 103.714C271.714 105.609 273.249 107.143 275.143 107.143Z" fill="black"/>
<path d="M280.571 114.143L282.286 114.143L282.286 109L280.571 109L280.571 114.143Z" fill="black"/>
<path d="M278 117.143L284.857 117.143L284.857 115.428L278 115.428L278 117.143Z" fill="black"/>
<path d="M12 131.143C14.3669 131.143 16.2857 133.062 16.2857 135.429V140.571H14.5714V135.429C14.5714 134.067 13.51 132.941 12.1507 132.861L12 132.857C10.6382 132.857 9.51266 133.919 9.43286 135.278L9.42857 135.429V140.571H7.71428V135.429C7.71428 133.062 9.63306 131.143 12 131.143ZM12 123.429C13.8935 123.429 15.4286 124.964 15.4286 126.857C15.4286 128.751 13.8935 130.286 12 130.286C10.1064 130.286 8.57142 128.751 8.57142 126.857C8.57142 124.964 10.1064 123.429 12 123.429ZM12 125.143C11.0532 125.143 10.2857 125.91 10.2857 126.857C10.2857 127.804 11.0532 128.571 12 128.571C12.9468 128.571 13.7143 127.804 13.7143 126.857C13.7143 125.91 12.9468 125.143 12 125.143Z" fill="black"/>
<path d="M36 131.143C38.3669 131.143 40.2857 133.062 40.2857 135.429V140.571H38.5714V135.429C38.5714 134.067 37.51 132.941 36.1507 132.861L36 132.857C34.6382 132.857 33.5127 133.919 33.4329 135.278L33.4286 135.429V140.571H31.7143V135.429C31.7143 133.062 33.6331 131.143 36 131.143ZM30.4286 133.714C30.6677 133.714 30.9 133.743 31.1229 133.795C30.9763 134.231 30.8895 134.685 30.8648 135.145L30.8571 135.429V135.502C30.7586 135.467 30.6561 135.444 30.552 135.434L30.4286 135.429C29.7664 135.429 29.2125 135.932 29.1489 136.591L29.1429 136.714V140.571H27.4286V136.714C27.4286 135.057 28.7717 133.714 30.4286 133.714ZM41.5714 133.714C43.2283 133.714 44.5714 135.057 44.5714 136.714V140.571H42.8571V136.714C42.8571 136.052 42.3541 135.498 41.6949 135.435L41.5714 135.429C41.4214 135.429 41.2774 135.454 41.1429 135.501V135.429C41.1429 134.858 41.0503 134.309 40.878 133.797C41.1 133.743 41.3323 133.714 41.5714 133.714ZM30.4286 128.571C31.612 128.571 32.5714 129.531 32.5714 130.714C32.5714 131.898 31.612 132.857 30.4286 132.857C29.2451 132.857 28.2857 131.898 28.2857 130.714C28.2857 129.531 29.2451 128.571 30.4286 128.571ZM41.5714 128.571C42.7549 128.571 43.7143 129.531 43.7143 130.714C43.7143 131.898 42.7549 132.857 41.5714 132.857C40.388 132.857 39.4286 131.898 39.4286 130.714C39.4286 129.531 40.388 128.571 41.5714 128.571ZM30.4286 130.286C30.1919 130.286 30 130.478 30 130.714C30 130.951 30.1919 131.143 30.4286 131.143C30.6653 131.143 30.8571 130.951 30.8571 130.714C30.8571 130.478 30.6653 130.286 30.4286 130.286ZM41.5714 130.286C41.3348 130.286 41.1429 130.478 41.1429 130.714C41.1429 130.951 41.3348 131.143 41.5714 131.143C41.8081 131.143 42 130.951 42 130.714C42 130.478 41.8081 130.286 41.5714 130.286ZM36 123.429C37.8935 123.429 39.4286 124.964 39.4286 126.857C39.4286 128.751 37.8935 130.286 36 130.286C34.1065 130.286 32.5714 128.751 32.5714 126.857C32.5714 124.964 34.1065 123.429 36 123.429ZM36 125.143C35.0532 125.143 34.2857 125.91 34.2857 126.857C34.2857 127.804 35.0532 128.571 36 128.571C36.9468 128.571 37.7143 127.804 37.7143 126.857C37.7143 125.91 36.9468 125.143 36 125.143Z" fill="black"/>
<path d="M60.8571 133.93V135.722C59.2829 135.165 57.5365 135.407 56.1732 136.372C54.81 137.336 53.9997 138.902 54 140.571L52.2857 140.571C52.2852 138.449 53.2663 136.447 54.943 135.148C56.6198 133.849 58.8034 133.399 60.8571 133.929V133.93ZM59.1429 132.857C56.3014 132.857 54 130.556 54 127.714C54 124.873 56.3014 122.571 59.1429 122.571C61.9843 122.571 64.2857 124.873 64.2857 127.714C64.2857 130.556 61.9843 132.857 59.1429 132.857ZM59.1429 131.143C61.0371 131.143 62.5714 129.609 62.5714 127.714C62.5714 125.82 61.0371 124.286 59.1429 124.286C57.2486 124.286 55.7143 125.82 55.7143 127.714C55.7143 129.609 57.2486 131.143 59.1429 131.143ZM64.1083 138.783L67.1383 135.753L68.3512 136.965L64.1083 141.208L61.0774 138.177L62.2903 136.965L64.1074 138.783H64.1083Z" fill="black"/>
<path d="M84.8571 133.93V135.722C83.2829 135.165 81.5365 135.407 80.1732 136.372C78.81 137.336 77.9997 138.902 78 140.571L76.2857 140.571C76.2852 138.449 77.2663 136.447 78.943 135.148C80.6198 133.849 82.8034 133.4 84.8571 133.93ZM83.1429 132.857C80.3014 132.857 78 130.556 78 127.714C78 124.873 80.3014 122.571 83.1429 122.571C85.9843 122.571 88.2857 124.873 88.2857 127.714C88.2857 130.556 85.9843 132.857 83.1429 132.857ZM83.1429 131.143C85.0371 131.143 86.5714 129.609 86.5714 127.714C86.5714 125.82 85.0371 124.286 83.1429 124.286C81.2486 124.286 79.7143 125.82 79.7143 127.714C79.7143 129.609 81.2486 131.143 83.1429 131.143Z" fill="black"/>
<path fill-rule="evenodd" clip-rule="evenodd" d="M90.2857 138.286V140.857H88.5714V138.286H85.9999V136.572H88.5714V134H90.2857V136.572H92.8571V138.286H90.2857Z" fill="black"/>
<path d="M108.857 133.93V135.722C107.283 135.165 105.536 135.407 104.173 136.372C102.81 137.336 102 138.902 102 140.571L100.286 140.571C100.285 138.449 101.266 136.447 102.943 135.148C104.62 133.849 106.803 133.4 108.857 133.93ZM107.143 132.857C104.301 132.857 102 130.556 102 127.714C102 124.873 104.301 122.571 107.143 122.571C109.984 122.571 112.286 124.873 112.286 127.714C112.286 130.556 109.984 132.857 107.143 132.857ZM107.143 131.143C109.037 131.143 110.571 129.609 110.571 127.714C110.571 125.82 109.037 124.286 107.143 124.286C105.249 124.286 103.714 125.82 103.714 127.714C103.714 129.609 105.249 131.143 107.143 131.143Z" fill="black"/>
<path d="M116.857 139H110V140.714H116.857V139Z" fill="black"/>
<path d="M132.857 133.93V135.722C131.283 135.165 129.536 135.407 128.173 136.372C126.81 137.336 126 138.902 126 140.571L124.286 140.571C124.285 138.449 125.266 136.447 126.943 135.148C128.62 133.849 130.803 133.4 132.857 133.93ZM131.143 132.857C128.301 132.857 126 130.556 126 127.714C126 124.873 128.301 122.571 131.143 122.571C133.984 122.571 136.286 124.873 136.286 127.714C136.286 130.556 133.984 132.857 131.143 132.857ZM131.143 131.143C133.037 131.143 134.571 129.609 134.571 127.714C134.571 125.82 133.037 124.286 131.143 124.286C129.249 124.286 127.714 125.82 127.714 127.714C127.714 129.609 129.249 131.143 131.143 131.143Z" fill="black"/>
<path d="M136.286 134.424L134.719 135.992L133.506 134.779L137.143 131.143L140.78 134.779L139.567 135.992L138 134.424L138 136.641C138 139.007 136.081 140.926 133.714 140.926L130.286 140.926L130.286 139.212L133.714 139.212C135.134 139.212 136.286 138.061 136.286 136.641L136.286 134.424Z" fill="black"/>
<path d="M155.143 133.714V135.429C152.303 135.429 150 137.731 150 140.571H148.286C148.286 136.784 151.356 133.714 155.143 133.714ZM155.143 132.857C152.301 132.857 150 130.556 150 127.714C150 124.873 152.301 122.571 155.143 122.571C157.984 122.571 160.286 124.873 160.286 127.714C160.286 130.556 157.984 132.857 155.143 132.857ZM155.143 131.143C157.037 131.143 158.571 129.609 158.571 127.714C158.571 125.82 157.037 124.286 155.143 124.286C153.249 124.286 151.714 125.82 151.714 127.714C151.714 129.609 153.249 131.143 155.143 131.143ZM160.286 140.143L157.767 141.467L158.247 138.663L156.21 136.676L159.027 136.266L160.286 133.714L161.546 136.266L164.361 136.676L162.324 138.663L162.804 141.467L160.286 140.143Z" fill="black"/>
<path d="M180.857 133.93V135.722C179.283 135.165 177.536 135.407 176.173 136.372C174.81 137.336 174 138.902 174 140.571L172.286 140.571C172.285 138.449 173.266 136.447 174.943 135.148C176.62 133.849 178.803 133.4 180.857 133.93ZM179.143 132.857C176.301 132.857 174 130.556 174 127.714C174 124.873 176.301 122.571 179.143 122.571C181.984 122.571 184.286 124.873 184.286 127.714C184.286 130.556 181.984 132.857 179.143 132.857ZM179.143 131.143C181.037 131.143 182.571 129.609 182.571 127.714C182.571 125.82 181.037 124.286 179.143 124.286C177.249 124.286 175.714 125.82 175.714 127.714C175.714 129.609 177.249 131.143 179.143 131.143Z" fill="black"/>
<path d="M183.649 135.213L185.217 136.78H183V138.494H185.217L183.649 140.061L184.862 141.274L188.498 137.637L184.862 134L183.649 135.213Z" fill="black"/>
<path d="M204.857 133.93V135.722C203.283 135.165 201.536 135.407 200.173 136.372C198.81 137.336 198 138.902 198 140.571L196.286 140.571C196.285 138.449 197.266 136.447 198.943 135.148C200.62 133.849 202.803 133.4 204.857 133.93ZM203.143 132.857C200.301 132.857 198 130.556 198 127.714C198 124.873 200.301 122.571 203.143 122.571C205.984 122.571 208.286 124.873 208.286 127.714C208.286 130.556 205.984 132.857 203.143 132.857ZM203.143 131.143C205.037 131.143 206.571 129.609 206.571 127.714C206.571 125.82 205.037 124.286 203.143 124.286C201.249 124.286 199.714 125.82 199.714 127.714C199.714 129.609 201.249 131.143 203.143 131.143Z" fill="black"/>
<path d="M211.849 135.213L210.281 136.78H212.498V138.494H210.281L211.849 140.061L210.636 141.274L207 137.637L210.636 134L211.849 135.213Z" fill="black"/>
<path d="M228.857 133.93V135.722C227.283 135.165 225.536 135.407 224.173 136.372C222.81 137.336 222 138.902 222 140.571L220.286 140.571C220.285 138.449 221.266 136.447 222.943 135.148C224.62 133.849 226.803 133.4 228.857 133.93ZM227.143 132.857C224.301 132.857 222 130.556 222 127.714C222 124.873 224.301 122.571 227.143 122.571C229.984 122.571 232.286 124.873 232.286 127.714C232.286 130.556 229.984 132.857 227.143 132.857ZM227.143 131.143C229.037 131.143 230.571 129.609 230.571 127.714C230.571 125.82 229.037 124.286 227.143 124.286C225.249 124.286 223.714 125.82 223.714 127.714C223.714 129.609 225.249 131.143 227.143 131.143Z" fill="black"/>
<path d="M233.8 138.859H232.085V140.573H233.8V138.859Z" fill="black"/>
<path d="M233.336 132.026C231.769 131.819 230.31 132.863 230 134.413L231.682 134.75C231.814 134.086 232.44 133.639 233.111 133.727C233.782 133.816 234.27 134.411 234.225 135.087C234.181 135.762 233.62 136.288 232.943 136.288H232.085V138.002H232.943C234.523 138.002 235.833 136.776 235.937 135.198C236.041 133.621 234.903 132.233 233.336 132.026Z" fill="black"/>
<path fill-rule="evenodd" clip-rule="evenodd" d="M252 133.212L250.182 135.031L248.97 133.818L250.788 132L248.97 130.182L250.182 128.97L252 130.788L253.818 128.97L255.03 130.182L253.212 132L255.03 133.818L253.818 135.031L252 133.212Z" fill="black"/>
<path d="M276.857 133.93V135.722C275.283 135.165 273.536 135.407 272.173 136.372C270.81 137.336 270 138.902 270 140.571L268.286 140.571C268.285 138.449 269.266 136.447 270.943 135.148C272.62 133.849 274.803 133.4 276.857 133.93ZM275.143 132.857C272.301 132.857 270 130.556 270 127.714C270 124.873 272.301 122.571 275.143 122.571C277.984 122.571 280.286 124.873 280.286 127.714C280.286 130.556 277.984 132.857 275.143 132.857ZM275.143 131.143C277.037 131.143 278.571 129.609 278.571 127.714C278.571 125.82 277.037 124.286 275.143 124.286C273.249 124.286 271.714 125.82 271.714 127.714C271.714 129.609 273.249 131.143 275.143 131.143Z" fill="black"/>
<path d="M284.173 139.737L282.606 138.169L282.606 140.386L280.892 140.386L280.892 138.169L279.325 139.737L278.112 138.524L281.749 134.888L285.386 138.524L284.173 139.737Z" fill="black"/>
<path d="M12.8572 157.93V159.722C11.2829 159.165 9.53647 159.407 8.17323 160.372C6.81 161.336 5.99969 162.902 6.00001 164.571L4.28572 164.571C4.28518 162.449 5.26631 160.447 6.94305 159.148C8.6198 157.849 10.8034 157.4 12.8572 157.93ZM11.1429 156.857C8.30144 156.857 6.00001 154.556 6.00001 151.714C6.00001 148.873 8.30144 146.571 11.1429 146.571C13.9843 146.571 16.2857 148.873 16.2857 151.714C16.2857 154.556 13.9843 156.857 11.1429 156.857ZM11.1429 155.143C13.0372 155.143 14.5714 153.609 14.5714 151.714C14.5714 149.82 13.0372 148.286 11.1429 148.286C9.24858 148.286 7.71429 149.82 7.71429 151.714C7.71429 153.609 9.24858 155.143 11.1429 155.143Z" fill="black"/>
<path d="M15.3252 159.537L16.892 161.105L16.892 158.888L18.6063 158.888L18.6063 161.105L20.1732 159.537L21.386 160.75L17.7492 164.386L14.1123 160.75L15.3252 159.537Z" fill="black"/>
<path d="M36.8571 157.93V159.722C35.2829 159.165 33.5365 159.407 32.1732 160.372C30.81 161.336 29.9997 162.902 30 164.571L28.2857 164.571C28.2852 162.449 29.2663 160.447 30.943 159.148C32.6198 157.849 34.8034 157.4 36.8571 157.93ZM35.1429 156.857C32.3014 156.857 30 154.556 30 151.714C30 148.873 32.3014 146.571 35.1429 146.571C37.9843 146.571 40.2857 148.873 40.2857 151.714C40.2857 154.556 37.9843 156.857 35.1429 156.857ZM35.1429 155.143C37.0371 155.143 38.5714 153.609 38.5714 151.714C38.5714 149.82 37.0371 148.286 35.1429 148.286C33.2486 148.286 31.7143 149.82 31.7143 151.714C31.7143 153.609 33.2486 155.143 35.1429 155.143Z" fill="black"/>
<path d="M38.8838 159.705L38.8838 159.705C38.6377 160.147 38.2372 160.473 37.7698 160.622C37.7567 160.746 37.75 160.872 37.75 161C37.75 161.128 37.7567 161.254 37.7697 161.377C38.2372 161.526 38.6378 161.852 38.884 162.294C39.1333 162.742 39.1998 163.263 39.0858 163.748C39.2689 163.888 39.4652 164.007 39.6713 164.104C40.0232 163.769 40.4932 163.569 40.9998 163.569C41.5064 163.569 41.9764 163.769 42.3283 164.104C42.5345 164.007 42.7308 163.888 42.914 163.748C42.8001 163.263 42.8667 162.742 43.1159 162.295L38.8838 159.705ZM38.8838 159.705C39.1329 159.258 39.1995 158.737 39.0856 158.252M38.8838 159.705L39.0856 158.252M39.0856 158.252C39.2688 158.112 39.4651 157.993 39.6713 157.896C40.0233 158.231 40.4932 158.431 40.9998 158.431C41.5064 158.431 41.9764 158.231 42.3283 157.896C42.5344 157.993 42.7307 158.112 42.9138 158.251C42.7998 158.737 42.8663 159.258 43.1156 159.706C43.3619 160.148 43.7626 160.474 44.2303 160.623C44.2433 160.747 44.25 160.872 44.25 161C44.25 161.128 44.2433 161.254 44.2302 161.378C43.7628 161.527 43.3622 161.853 43.1159 162.295L39.0856 158.252Z" stroke="black" stroke-width="1.5"/>
<defs>
<clipPath id="clip0_749_466">
<rect width="24" height="24" fill="white" transform="translate(24)"/>
</clipPath>
<clipPath id="clip1_749_466">
<rect width="24" height="24" fill="white" transform="translate(48)"/>
</clipPath>
<clipPath id="clip2_749_466">
<rect width="24" height="24" fill="white" transform="translate(72)"/>
</clipPath>
</defs>
</svg>
